<svg xmlns="http://www.w3.org/2000/svg" xmlns:svgjs="http://svgjs.com/svgjs" xmlns:xlink="http://www.w3.org/1999/xlink" width="288" height="288"><svg xmlns="http://www.w3.org/2000/svg" width="288" height="288" data-name="Layer 1" viewBox="0 0 64 64"><path fill="#2d6cdf" d="M28.08,48.68,29.43,53c-4.65.13-18.43.88-18.43,5,0,4.94,20.14,5,21,5s21-.06,21-5c0-4.08-13.78-4.83-18.43-5l1.35-4.36a24,24,0,1,0-7.84,0ZM32,8A17,17,0,1,1,15,25,17,17,0,0,1,32,8ZM51,58c-.44,1.1-7.17,3-19,3s-18.57-2-19-3c.4-1,6.43-2.82,17-3l1,3.26a1,1,0,0,0,1.92,0L34,55C44.58,55.23,50.61,57.05,51,58Z" class="color000 svgShape"/><path fill="#2d6cdf" d="M42,34H40V25a1,1,0,0,0-.35-.76L33,18.54V15h3V13H33V11H31v2H28v2h3v3.54l-6.65,5.7A1,1,0,0,0,24,25v9H22v2H42Zm-8,0H30V29h4ZM27.7,24h8.6L38,25.46V26H26v-.54Z" class="color000 svgShape"/></svg></svg>